<svg width="1440" height="544" viewBox="0 0 1440 544" fill="none" xmlns="http://www.w3.org/2000/svg">
<g clip-path="url(#clip0_212_16580)" filter="url(#filter0_f_212_16580)">
<path opacity="0.15" d="M1287.19 245.88C1320.7 282.97 1347.88 347.451 1297.8 392.973C1292.63 397.666 1244.18 440.248 1171.3 434.96C1082.54 428.52 1064.34 358.812 966.382 340.716C860.298 321.119 798.037 387.425 746.231 367.056C684.971 342.97 677.451 213.071 788.331 157.396C921.906 90.3255 1197.08 146.151 1287.19 245.88Z" fill="#EBC136"/>
<path opacity="0.15" d="M452.245 437.639C483.307 418.569 517.155 380.148 496.134 341.285C493.966 337.278 473.262 300.654 424.679 291.834C365.505 281.09 336.162 324.52 268.092 319.996C194.375 315.096 170.688 260.301 131.971 265.114C86.1894 270.806 48.6268 356.21 106.514 412.149C176.248 479.538 368.723 488.917 452.245 437.639Z" fill="#EBC136"/>
<path opacity="0.15" d="M634.575 329.89C619.187 308.799 603.464 268.221 616.947 230.859C618.337 227.007 631.519 191.857 657.878 186.297C689.983 179.526 703.013 224.799 739.481 224.823C778.973 224.849 794.817 171.774 815.122 179.155C839.131 187.883 854.044 275.57 819.945 327.508C778.865 390.075 675.953 386.602 634.575 329.89Z" fill="#EBC136"/>
<path opacity="0.15" d="M622.467 282.802C639.284 272.124 657.622 250.633 646.276 228.936C645.107 226.699 633.931 206.254 607.654 201.363C575.649 195.407 559.745 219.693 522.923 217.218C483.047 214.538 470.27 183.943 449.321 186.661C424.55 189.876 404.171 237.62 435.448 268.828C473.128 306.423 577.247 311.514 622.467 282.802Z" fill="#EBC136"/>
<path opacity="0.15" d="M1346.62 256.365C1364.76 240.046 1384.7 207.494 1372.95 175.192C1371.74 171.861 1360.14 141.43 1332.17 134.595C1298.09 126.269 1280.7 162.965 1241.42 159.946C1198.89 156.678 1185.75 111.066 1163.34 115.534C1136.83 120.818 1114.28 192.751 1147.15 238.934C1186.76 294.569 1297.86 300.244 1346.62 256.365Z" fill="#8047F8"/>
<path opacity="0.15" d="M1358.61 385.852C1372.71 396.804 1388.15 418.725 1378.84 440.622C1377.88 442.88 1368.7 463.511 1346.82 468.261C1320.16 474.047 1306.73 449.312 1276.03 451.533C1242.79 453.938 1232.35 484.841 1214.86 481.922C1194.17 478.471 1176.84 429.932 1202.71 398.552C1233.88 360.749 1320.69 356.404 1358.61 385.852Z" fill="#8047F8"/>
<path opacity="0.15" d="M159.937 144.892C172.507 166.616 184.932 208.056 172.695 245.492C171.433 249.351 159.5 284.558 137.055 289.502C109.717 295.524 99.6751 249.405 68.7918 248.442C35.347 247.4 20.7653 300.665 3.73194 292.678C-16.4096 283.234 -27.117 194.175 2.89983 142.53C39.0604 80.3152 126.139 86.4763 159.937 144.892Z" fill="#EBC136"/>
<path opacity="0.15" d="M801.507 440.947C775.621 421.727 750.462 383.18 776.926 344.528C779.654 340.543 805.434 304.123 852.6 295.62C910.048 285.262 930.109 328.78 994.841 324.683C1064.94 320.246 1096.66 265.712 1132.2 270.753C1174.23 276.713 1194.76 362.166 1130.71 417.631C1053.55 484.449 871.112 492.627 801.507 440.947Z" fill="#EBC136"/>
<path opacity="0.15" d="M727.922 407.538C749.564 388.513 772.249 351.904 754.967 318.187C753.185 314.71 736.248 282.989 700.43 277.962C656.805 271.84 637.654 312.687 587.868 312.695C533.953 312.704 513.92 264.808 485.979 271.46C452.939 279.327 429.942 358.444 474.931 405.321C529.129 461.792 669.728 458.695 727.922 407.538Z" fill="#8047F8"/>
<path opacity="0.15" d="M775.472 149.004C816.019 159.666 859.079 179.465 828.336 196.257C825.167 197.989 794.993 213.762 729.11 215.009C648.863 216.528 612.181 194.67 520.369 192.784C420.943 190.742 385.601 214.767 333.852 210.269C272.66 204.95 227.602 163.145 309 140.591C407.058 113.42 666.443 120.335 775.472 149.004Z" fill="#8047F8"/>
<path opacity="0.15" d="M108.139 390.866C127.225 368.714 147.35 326.381 132.454 287.978C130.918 284.018 116.31 247.899 84.9801 242.685C46.82 236.335 29.7611 283.475 -13.8368 284.25C-61.0509 285.089 -78.2558 230.467 -102.771 238.526C-131.76 248.056 -152.458 339.145 -113.392 392.214C-66.3292 456.144 56.8163 450.431 108.139 390.866Z" fill="#8047F8"/>
</g>
<defs>
<filter id="filter0_f_212_16580" x="-247" y="-152" width="1760" height="864" filterUnits="userSpaceOnUse" color-interpolation-filters="sRGB">
<feFlood flood-opacity="0" result="BackgroundImageFix"/>
<feBlend mode="normal" in="SourceGraphic" in2="BackgroundImageFix" result="shape"/>
<feGaussianBlur stdDeviation="80" result="effect1_foregroundBlur_212_16580"/>
</filter>
<clipPath id="clip0_212_16580">
<rect width="1440" height="544" fill="white" transform="translate(-87 8)"/>
</clipPath>
</defs>
</svg>
